<svg width="23" height="25" viewBox="0 0 23 25" fill="none" xmlns="http://www.w3.org/2000/svg">
<path fill-rule="evenodd" clip-rule="evenodd" d="M3.76772 0.0509183C3.62423 0.0749949 3.32395 0.159141 3.10038 0.237915C1.42517 0.828303 0.244809 2.32872 0.0427905 4.12469C0.00354665 4.47344 -0.00727923 6.92964 0.00451326 12.8154C0.022347 21.7544 0.00562483 21.2097 0.285455 21.9659C0.855844 23.5073 2.26055 24.6956 3.81107 24.9483C4.00966 24.9806 5.44597 24.9996 7.71613 24.9998C11.6793 25.0002 11.4966 25.0144 11.6908 24.6926C11.8252 24.4698 11.8182 24.0874 11.6758 23.872C11.4426 23.5192 11.6303 23.5352 7.74561 23.5352C4.45255 23.5351 4.24135 23.5299 3.89391 23.4401C2.75178 23.1449 1.86807 22.2735 1.58775 21.166C1.49312 20.7921 1.49124 20.6208 1.49124 12.498C1.49124 4.4055 1.49346 4.20249 1.58669 3.83411C1.85516 2.77352 2.64579 1.95336 3.76274 1.57687C4.00845 1.49405 4.30863 1.48535 7.73439 1.46181C11.3819 1.43681 11.4423 1.43486 11.5736 1.33572C11.8098 1.15746 11.9008 0.991565 11.8999 0.74069C11.899 0.454018 11.7812 0.216817 11.5777 0.0914529C11.4276 -0.0010441 11.3128 -0.00373013 7.72579 0.00164192C5.69231 0.00466981 3.91116 0.0268417 3.76772 0.0509183ZM17.3434 7.33347C17.1574 7.46176 17.0051 7.72592 17.0051 7.92034C17.0051 8.24115 17.148 8.4134 18.8062 10.0923L20.4579 11.7645L13.1771 11.7771C5.90869 11.7898 5.89612 11.79 5.76287 11.8905C5.52756 12.0681 5.44902 12.2165 5.44694 12.4877C5.44457 12.7964 5.57864 13.0398 5.81275 13.1521C5.96074 13.223 6.66974 13.2305 13.2418 13.2305H20.5073L18.7838 14.9764C17.2644 16.5156 17.0564 16.7446 17.0265 16.9102C16.9288 17.4518 17.4172 17.9073 17.946 17.7678C18.1141 17.7235 18.4673 17.3865 20.5174 15.3147C22.5756 13.2346 22.9018 12.8853 22.9536 12.7055C23.0807 12.2639 23.1212 12.3149 20.6376 9.79436C19.3973 8.53568 18.2977 7.44237 18.194 7.36472C17.948 7.18051 17.5845 7.16718 17.3434 7.33347Z" fill="black"/>
</svg>
