<svg width="25" height="25" viewBox="0 0 25 25" fill="none" xmlns="http://www.w3.org/2000/svg">
<path fill-rule="evenodd" clip-rule="evenodd" d="M3.74315 0.231833C2.41004 0.628301 0.629689 2.51403 0.247982 3.93391C0.03996 4.70764 -0.0393 7.9092 0.0182136 13.2158L0.106058 21.3166L0.873764 22.4781C1.29582 23.1169 2.13277 23.9456 2.73366 24.3197C3.82098 24.9968 3.86504 25 12.5739 25H21.322L22.482 24.2309C23.1198 23.808 23.9476 22.9695 24.321 22.3675C24.9969 21.2784 25 21.2331 25 12.5298C25 3.82641 24.9969 3.78112 24.321 2.69205C23.9476 2.09004 23.1204 1.25153 22.4826 0.828684L21.3234 0.0595436L13.004 0.00564917C8.25067 -0.0250247 4.2808 0.0718704 3.74315 0.231833ZM21.886 1.79735C22.3203 2.12243 22.941 2.74451 23.2654 3.17997C23.8306 3.93821 23.8555 4.33325 23.8555 12.5298C23.8555 20.7263 23.8306 21.1213 23.2654 21.8796C22.941 22.315 22.32 22.9371 21.8854 23.2622C21.1286 23.8284 20.7343 23.8533 12.553 23.8533C4.37179 23.8533 3.9775 23.8284 3.22066 23.2622C2.78602 22.9371 2.1651 22.3153 1.84062 21.8801C1.28409 21.1342 1.24574 20.646 1.16305 13.2978C1.11498 9.0126 1.15246 5.09092 1.24603 4.58294C1.45806 3.43367 2.65983 1.97079 3.81154 1.45965C4.49083 1.15807 6.50266 1.08726 12.8904 1.13915C20.6762 1.20279 21.1369 1.23662 21.886 1.79735ZM3.96891 12.2431C3.96891 15.3647 4.03873 15.9698 4.39812 15.9698C4.7143 15.9698 4.82732 15.6393 4.82732 14.7148C4.82732 13.9694 4.99557 13.3201 5.24136 13.1157C5.58444 12.8305 5.80992 13.0455 6.55645 14.3705C7.17079 15.4613 7.63547 15.9698 8.01833 15.9698C8.54625 15.9698 8.53538 15.8979 7.83062 14.7515C6.34099 12.3288 6.34185 12.336 7.40943 11.2326C8.88217 9.71035 7.61659 9.90672 6.05428 11.4427L4.82732 12.649V10.5827C4.82732 8.9372 4.74005 8.51637 4.39812 8.51637C4.03873 8.51637 3.96891 9.12153 3.96891 12.2431ZM20.2787 12.2431C20.2787 15.3647 20.3486 15.9698 20.7079 15.9698C21.0673 15.9698 21.1371 15.3647 21.1371 12.2431C21.1371 9.12153 21.0673 8.51637 20.7079 8.51637C20.3486 8.51637 20.2787 9.12153 20.2787 12.2431ZM9.53628 10.8909C8.98232 11.3685 8.73624 11.9071 8.62637 12.8838C8.49045 14.0916 8.56084 14.3077 9.34772 15.0961C10.4774 16.2278 11.9662 16.2972 12.9951 15.2661C13.3814 14.879 13.6976 14.4275 13.6976 14.2627C13.6976 13.7404 12.7055 13.9396 12.3333 14.5365C11.9278 15.1866 10.4994 15.3214 10.0542 14.7515C9.32426 13.8169 9.49422 11.869 10.3535 11.3217C10.9893 10.9164 11.957 11.095 12.5436 11.7254C12.9745 12.1889 13.2126 12.2703 13.4481 12.0344C13.6836 11.7985 13.5737 11.5195 13.0303 10.9752C12.0737 10.0168 10.5924 9.98097 9.53628 10.8909ZM15.1921 10.6827C14.534 11.1446 14.3239 11.9564 14.8624 11.9564C15.0313 11.9564 15.3692 11.756 15.6138 11.5109C16.2562 10.8674 17.8466 11.0692 17.8466 11.7945C17.8466 12.2167 17.5201 12.4323 16.478 12.6986C14.8204 13.1223 14.2699 13.5426 14.2699 14.3837C14.2699 15.6731 15.8562 16.3669 17.1807 15.6565C17.6034 15.43 17.8514 15.43 18.0775 15.6565C18.5356 16.1155 19.4203 16.0386 19.4203 15.5398C19.4203 15.3033 19.2916 15.1098 19.1342 15.1098C18.9714 15.1098 18.848 14.2647 18.848 13.1476C18.848 11.6107 18.7347 11.0824 18.3247 10.7108C17.6652 10.1128 16.025 10.0979 15.1921 10.6827ZM17.9896 13.6561C17.9896 14.9008 15.7151 15.7351 15.2971 14.6434C14.9723 13.7954 15.6053 13.3895 17.632 13.1461C17.8288 13.1223 17.9896 13.3519 17.9896 13.6561Z" fill="#230382"/>
</svg>
