<svg width="25" height="25" viewBox="0 0 25 25" fill="none" xmlns="http://www.w3.org/2000/svg">
<path fill-rule="evenodd" clip-rule="evenodd" d="M8.95788 0.0717666C7.23551 0.312737 5.52998 1.01001 4.09104 2.06141C3.56694 2.44435 2.55589 3.42303 2.15246 3.93789C1.52564 4.73787 0.856017 5.93705 0.561428 6.78724C-1.01086 11.3243 0.798969 16.1945 4.99259 18.7115C8.33348 20.7167 12.7453 20.6897 16.0451 18.6438L16.4297 18.4054L17.0611 19.0278C17.4084 19.3702 18.8421 20.8059 20.247 22.2182C23.1471 25.1338 23.0146 25.0281 23.7197 24.9876C24.149 24.963 24.3416 24.8843 24.6118 24.6231C24.8754 24.3683 25 24.0655 25 23.6795C25 23.1989 24.8779 22.9852 24.2386 22.3469C22.1158 20.2274 18.5173 16.5966 18.5173 16.5742C18.5173 16.5592 18.6282 16.41 18.7638 16.2428C19.5929 15.2192 20.2352 13.9398 20.5944 12.5961C21.3961 9.59752 20.734 6.46905 18.7608 3.93198C18.366 3.42445 17.3525 2.44655 16.8104 2.05022C15.3519 0.983732 13.6891 0.313469 11.888 0.0660036C11.2293 -0.0244946 9.62315 -0.0213201 8.95788 0.0717666ZM11.4937 2.73231C13.0486 2.91975 14.5633 3.62967 15.756 4.73005C18.1643 6.95207 18.8193 10.3288 17.4091 13.2524C16.7649 14.5879 15.6141 15.7862 14.2494 16.5425C12.2937 17.6264 9.91739 17.8102 7.77108 17.0437C4.60422 15.9127 2.51421 12.7479 2.8045 9.52323C2.86867 8.81029 2.96741 8.34627 3.1905 7.70922C4.27507 4.61225 7.38513 2.53412 10.7357 2.6675C10.9164 2.67468 11.2574 2.70383 11.4937 2.73231Z" fill="#230382"/>
</svg>
