<svg width="25" height="25" viewBox="0 0 25 25" fill="none" xmlns="http://www.w3.org/2000/svg">
<path fill-rule="evenodd" clip-rule="evenodd" d="M9.66733 0.645814C7.04763 1.79496 5.67909 4.02069 5.67909 7.13177C5.67909 11.4922 9.52945 14.7306 13.8029 13.9646C18.2097 13.1747 20.6676 7.99427 18.6386 3.77323C17.8086 2.04678 16.9616 1.27318 15.0784 0.521356C13.2412 -0.211965 11.5331 -0.172777 9.66733 0.645814ZM8.52783 17.8849C7.4833 18.1287 5.60313 18.7771 4.34968 19.3257C0.435137 21.0402 -0.967962 22.9778 0.67633 24.3995C1.28938 24.9296 2.68298 25 12.5822 25C22.9611 25 23.84 24.9507 24.4219 24.3363C25.8315 22.8487 24.6562 21.1701 20.9745 19.4121C17.0558 17.5409 12.4336 16.9737 8.52783 17.8849Z" fill="#230382"/>
</svg>
